<svg width="33" height="32" viewBox="0 0 33 32" fill="none" xmlns="http://www.w3.org/2000/svg">
<path fill-rule="evenodd" clip-rule="evenodd" d="M30.0298 14.6664C30.0298 8.78714 24.0116 4.00293 16.614 4.00293C9.2164 4.00293 3.19824 8.78714 3.19824 14.6664C3.19824 19.9384 7.97656 24.3543 14.4172 25.1882C14.8548 25.2806 15.4496 25.4703 15.5992 25.8361C15.735 26.1687 15.6885 26.6898 15.6432 27.0248C15.6432 27.0248 15.4861 27.9523 15.4521 28.1494L15.4471 28.1775C15.3829 28.5327 15.2201 29.4331 16.614 28.8589C18.0462 28.2689 24.3398 24.4024 27.154 21.2281C29.098 19.1402 30.0298 17.0166 30.0298 14.6664ZM25.5658 18.0624H21.7934C21.7267 18.0624 21.6628 18.0365 21.6156 17.9903C21.5684 17.9441 21.5419 17.8814 21.5419 17.8161V12.076C21.5419 12.0106 21.5684 11.948 21.6156 11.9018C21.6628 11.8556 21.7267 11.8296 21.7934 11.8296H25.5658C25.6325 11.8296 25.6965 11.8556 25.7436 11.9018C25.7908 11.948 25.8173 12.0106 25.8173 12.076V13.0084C25.8173 13.0738 25.7908 13.1364 25.7436 13.1826C25.6965 13.2288 25.6325 13.2548 25.5658 13.2548H23.0044V14.2217H25.5658C25.6325 14.2217 25.6965 14.2477 25.7436 14.2939C25.7908 14.3401 25.8173 14.4027 25.8173 14.4681V15.4153C25.8173 15.4807 25.7908 15.5433 25.7436 15.5895C25.6965 15.6357 25.6325 15.6617 25.5658 15.6617H23.0044V16.6299H25.5658C25.6325 16.6299 25.6965 16.6558 25.7436 16.702C25.7908 16.7482 25.8173 16.8109 25.8173 16.8762V17.8074C25.8185 17.8405 25.8128 17.8735 25.8007 17.9044C25.7886 17.9353 25.7703 17.9634 25.7468 17.9872C25.7233 18.011 25.6952 18.03 25.6641 18.0429C25.633 18.0558 25.5996 18.0624 25.5658 18.0624ZM11.8022 17.9903C11.7551 18.0365 11.6911 18.0624 11.6244 18.0624L11.6332 18.0587H7.86085C7.79415 18.0587 7.73019 18.0328 7.68302 17.9866C7.63586 17.9404 7.60936 17.8777 7.60936 17.8124V12.0809C7.60936 12.0156 7.63586 11.9529 7.68302 11.9067C7.73019 11.8605 7.79415 11.8346 7.86085 11.8346H8.81148C8.87818 11.8346 8.94216 11.8605 8.98932 11.9067C9.03648 11.9529 9.06298 12.0156 9.06298 12.0809V16.6385H11.6244C11.6911 16.6385 11.7551 16.6644 11.8022 16.7106C11.8494 16.7568 11.8759 16.8195 11.8759 16.8848V17.8161C11.8759 17.8814 11.8494 17.9441 11.8022 17.9903ZM13.8929 11.8259H12.9422C12.8005 11.8259 12.6857 11.9384 12.6857 12.0772V17.8124C12.6857 17.9511 12.8005 18.0636 12.9422 18.0636H13.8929C14.0345 18.0636 14.1494 17.9511 14.1494 17.8124V12.0772C14.1494 11.9384 14.0345 11.8259 13.8929 11.8259ZM19.4194 11.8247H20.37C20.4034 11.8247 20.4366 11.8312 20.4674 11.8439C20.4983 11.8566 20.5262 11.8752 20.5496 11.8986C20.573 11.922 20.5915 11.9497 20.6038 11.9802C20.6161 12.0107 20.6222 12.0432 20.6215 12.076V17.7902C20.6215 17.8555 20.595 17.9182 20.5478 17.9644C20.5007 18.0106 20.4367 18.0365 20.37 18.0365H19.4244C19.4015 18.0362 19.3787 18.0333 19.3565 18.0279H19.2974L19.2823 18.0181C19.2566 18.0009 19.2345 17.9791 19.2169 17.954L16.5348 14.4065V17.8468C16.5348 17.9122 16.5083 17.9748 16.4611 18.021C16.4139 18.0672 16.35 18.0932 16.2833 18.0932H15.3314C15.2647 18.0932 15.2007 18.0672 15.1535 18.021C15.1064 17.9748 15.0799 17.9122 15.0799 17.8468V12.1117C15.0799 12.0464 15.1064 11.9837 15.1535 11.9375C15.2007 11.8913 15.2647 11.8653 15.3314 11.8653H16.3964L16.4103 11.8727H16.4178L16.4317 11.8826H16.4392L16.453 11.8937L16.4681 11.9085C16.4762 11.9163 16.4834 11.9249 16.4895 11.9343L19.1679 15.4781V12.071C19.1679 12.0057 19.1944 11.9431 19.2415 11.8969C19.2887 11.8507 19.3527 11.8247 19.4194 11.8247Z" fill="#4B4B4B"/>
</svg>
